<?xml version="1.0" encoding="utf-8"?>
<!-- Generator: Adobe Illustrator 28.2.0, SVG Export Plug-In . SVG Version: 6.00 Build 0)  -->
<svg version="1.1" id="Layer_1" xmlns="http://www.w3.org/2000/svg" xmlns:xlink="http://www.w3.org/1999/xlink" x="0px" y="0px"
	 viewBox="0 0 595.28 595.28" style="enable-background:new 0 0 595.28 595.28;" xml:space="preserve">
<style type="text/css">
	.st0{display:none;}
	.st1{fill:#fa903f;}
	.st2{display:none;fill:#FFFFFF;}
</style>
<path class="st0" d="M595.4,595.4c-198.53,0-397.04,0-595.52,0c0-198.53,0-397.04,0-595.52c198.53,0,397.04,0,595.52,0
	C595.4,198.41,595.4,396.92,595.4,595.4z M292.28,317.36c0.93,0.32,1.52,0.61,2.13,0.72c10.94,1.89,21.9,2.31,32.87,0.28
	c65.51-12.14,92.57-78.97,69.11-129.67c-18.5-39.99-62.65-62.84-105.21-52.37c-32.28,7.94-56.11,27.09-67.9,58.71
	c-11.57,31.03-6.47,60.57,11.64,87.9c4.3,6.49,9.86,12.16,14.92,18.32c-1.94,3.45-4.33,7.11-6.14,11.05
	c-7.3,15.9-9.22,32.51-6.83,49.84c5.21,37.64,38.76,67.18,76.88,67.53c18.25,0.17,34.78-5.17,50.02-14.93
	c33.99-21.76,68.12-43.3,101.92-65.35c25.48-16.63,38.87-40.23,38.78-71.07c-0.1-34.18-0.02-68.35-0.08-102.53
	c-0.01-5.12-0.06-10.28-0.69-15.36c-2.88-23.37-13.68-42.53-33.31-55.4c-37.74-24.75-76.03-48.68-114.22-72.75
	c-12.66-7.98-26.54-12.6-41.69-12.79c-16.79-0.21-31.98,5.03-46.04,13.8c-17.68,11.02-35.28,22.18-52.88,33.33
	c-19.91,12.61-40.13,24.75-59.57,38.04c-21.31,14.57-33.24,35.15-34.36,61.25c-0.56,13.08-0.39,26.2-0.36,39.3
	c0.05,26.42-0.58,52.88,0.58,79.25c1.16,26.3,13.7,46.99,35.97,61.3c20.74,13.33,41.68,26.33,62.56,39.44
	c3.82,2.4,7.73,4.67,12.19,7.37c-0.42-1.12-0.55-1.61-0.77-2.05c-5.11-10.04-7.99-20.74-8.9-31.92c-0.23-2.9-1.46-4.37-3.76-5.8
	c-15.75-9.77-31.59-19.42-47.08-29.59c-15.77-10.36-24.14-25.21-24.19-44.25c-0.11-36.03-0.15-72.07,0.03-108.1
	c0.08-17.2,7.16-31.48,20.68-41.92c8.95-6.91,18.78-12.7,28.36-18.74c29.7-18.74,59.46-37.39,89.24-56.01
	c7.42-4.64,15.52-7.36,24.31-7.88c11.67-0.69,22.17,2.74,31.91,8.9c35.22,22.26,70.26,44.8,105.72,66.67
	c18.93,11.68,29.63,27.63,29.72,50.05c0.14,35.71,0.09,71.41,0.07,107.12c-0.01,7.61-1.66,14.89-4.86,21.84
	c-5.68,12.32-14.89,21.32-26.15,28.52c-26.66,17.04-53.2,34.27-79.95,51.17c-10.03,6.33-20.05,12.97-30.85,17.71
	c-21.67,9.51-46.31,3.43-60.81-13.71c-21.55-25.47-15.69-64.51,12.43-82.68c15.94-10.3,31.97-20.46,47.85-30.85
	c11.66-7.63,19.68-18.28,25.16-31.41c-2.27-0.2-4.21-0.48-6.16-0.53c-10.99-0.32-21.22,2.52-30.57,8.13
	c-10.19,6.12-20.15,12.63-30.18,19c-8.64,5.48-17.24,11-25.79,16.46c-28.66-24.42-35.8-68.62-8.18-99.85
	c29.51-33.36,81.58-31.16,106.86,4.54c22.94,32.39,14.3,75.23-19.38,96.02c-9.74,6.01-19.53,11.97-29.28,17.97
	C309.55,306.64,301.05,311.93,292.28,317.36z M387.3,502.6c-6.53-1.66-7.14-1.48-8.98,3.99c-5.44,16.1-10.77,32.23-16.12,48.28
	c-1.23-3.85-2.59-7.97-3.84-12.11c-3.59-11.88-7.25-23.74-10.64-35.68c-0.94-3.32-3.27-2.76-5.56-3.09
	c-2.29-0.33-3.07,0.93-3.65,2.77c-1,3.22-2.19,6.39-3.16,9.62c-3.9,12.94-7.75,25.9-11.7,39.13c-0.31-0.83-0.55-1.42-0.75-2.03
	c-5.16-16.29-10.3-32.6-15.52-48.87c-0.31-0.98-1.14-2.36-1.93-2.51c-1.93-0.36-3.98-0.12-5.98-0.12c0,0.62-0.05,0.85,0.01,1.04
	c6.45,19.89,12.95,39.78,19.34,59.69c0.99,3.1,3.32,2.18,5.35,2.28c1.88,0.08,3.47,0.08,4.22-2.46c3.04-10.34,6.36-20.6,9.55-30.9
	c1.68-5.43,3.33-10.87,5.26-17.2c0.42,1.42,0.55,1.81,0.66,2.21c4.27,14.64,8.63,29.25,12.76,43.93c1,3.55,2.59,4.95,6.44,4.47
	c2.38-0.3,3.12-1.4,3.75-3.26c5.87-17.09,11.77-34.18,17.67-51.27C385.4,507.88,386.35,505.26,387.3,502.6z M108.06,516.37
	c0.23-0.05,0.45-0.1,0.68-0.15c0.47,0.59,0.94,1.17,1.4,1.76c11.95,15.17,23.89,30.35,35.85,45.5c1.35,1.72,2.73,3.58,5.39,2.72
	c2.69-0.88,2.21-3.18,2.22-5.2c0.06-17.9,0.08-35.8,0.12-53.7c0-1.6,0-3.19,0-4.71c-2.64,0-4.75,0-7.18,0c0,16.8,0,33.29,0,50.14
	c-0.61-0.52-0.88-0.69-1.07-0.93c-12.42-15.49-24.9-30.94-37.2-46.53c-1.92-2.44-3.88-3.17-6.85-2.3c0,21.36,0,42.66,0,63.93
	c2.35,0,4.36,0,6.64,0C108.06,549.89,108.06,533.13,108.06,516.37z M253.06,566.99c0-22.27,0-44.34,0-66.42c-2.17,0-4.08,0-6.31,0
	c0,9.53,0,18.84,0,28.41c-12.33-9.89-24.5-10.1-32.96-0.81c-8.52,9.34-8.7,24.05-0.39,32.75c9.21,9.64,21.92,9.58,33.55-0.33
	c0,2.2,0,4.21,0,6.41C248.98,566.99,250.8,566.99,253.06,566.99z M302.95,548.17c2.06-12.29-4.21-23.05-14.74-25.95
	c-10.91-3.01-23.73,2.73-27.21,12.66c-3.83,10.94-2.52,24.44,11.07,30.88c9.28,4.39,21.51,1.5,26.51-6.56
	c-1.4-1.14-2.81-2.29-4.21-3.43c-12.99,9.43-25.69,6.11-28.16-7.59C278.44,548.17,290.61,548.17,302.95,548.17z M404.23,567.93
	c13,0.04,23.43-10.41,23.45-23.48c0.01-12.7-10.12-22.96-22.71-23.02c-13.57-0.06-23.43,9.84-23.47,23.56
	C381.46,557.69,391.57,567.9,404.23,567.93z M159,544.99c0.13,13.35,10.22,23.11,23.71,22.94c12.41-0.15,22.36-10.66,22.27-23.52
	c-0.09-13.21-10.16-23.16-23.31-23.03C168.46,521.52,158.86,531.51,159,544.99z M468.85,540.09c0-12.99,0-26.58,0-40.24
	c-2.33,0-4.32,0-6.39,0c0,22.57,0,44.86,0,67.1c2.35,0,4.27,0,6.82,0c0-7.24,0-14.29,0-20.75c7.58,6.68,15.02,13.36,22.61,19.86
	c1.79,1.53,4.31,2.38,6.01-0.12c1.64-2.42-0.94-3.32-2.29-4.56c-5.86-5.39-11.72-10.78-17.57-16.17c-1.84-1.7-2.16-3.3,0.02-5.11
	c2.34-1.95,4.49-4.14,6.73-6.22c4.11-3.81,8.22-7.61,12.33-11.41c-0.13-0.33-0.26-0.66-0.39-0.99c-2.93,0.44-6.64-0.11-8.66,1.49
	C481.34,528.26,475.22,534.31,468.85,540.09z M533.99,527.72c-7.39-6.99-18.47-7.98-25.44-2.56c-7.65,5.96-6.52,15.98,2.3,19.9
	c2.28,1.01,4.69,1.72,7.01,2.65c2.12,0.85,4.3,1.62,6.26,2.76c3.45,2.02,3.71,5.71,0.8,8.44c-3.47,3.25-9.16,3.54-13.63,0.58
	c-1.69-1.12-3.23-2.45-4.94-3.76c-1.5,1.76-2.81,3.29-4.07,4.76c4.2,5.57,12.31,8.65,19.14,7.12c2.49-0.56,5.07-1.5,7.18-2.91
	c7.48-4.99,7.24-15.73-0.61-20.1c-4.23-2.36-9.11-3.53-13.52-5.62c-1.55-0.74-3.57-2.63-3.56-3.99c0.02-1.81,1.43-4.06,2.93-5.27
	c1.46-1.18,3.9-2,5.72-1.71c3.42,0.54,6.7,1.99,10.59,3.24C530.98,530.49,532.41,529.18,533.99,527.72z M432.94,522.11
	c0,15.18,0,30.05,0,44.89c2.29,0,4.2,0,6.52,0c0-7.95-0.05-15.67,0.01-23.4c0.08-9.79,5.1-15.24,14.81-15.98
	c0.42-1.75,0.85-3.56,1.31-5.46c-6.9-1.06-12.14,1.03-16.48,6.31c0-2.08,0-4.16,0-6.36C436.88,522.11,435.06,522.11,432.94,522.11z"
	/>
<path class="st1" d="M277.55,418.07c11.39-7.06,22.41-13.92,33.47-20.74c12.65-7.8,25.35-15.52,38-23.33
	c43.71-26.98,54.93-82.59,25.15-124.62c-32.82-46.33-100.39-49.19-138.69-5.89c-35.85,40.53-26.57,97.9,10.62,129.59
	c11.09-7.08,22.26-14.25,33.47-21.36c13.03-8.27,25.95-16.71,39.17-24.66c12.13-7.29,25.41-10.97,39.68-10.55
	c2.52,0.07,5.04,0.43,7.99,0.69c-7.11,17.04-17.52,30.86-32.65,40.77c-20.61,13.49-41.42,26.67-62.1,40.04
	c-36.5,23.59-44.1,74.25-16.14,107.31c18.82,22.24,50.8,30.14,78.92,17.79c14.02-6.15,27.03-14.77,40.04-22.99
	c34.72-21.93,69.16-44.29,103.76-66.41c14.62-9.34,26.57-21.02,33.94-37.01c4.16-9.02,6.3-18.47,6.31-28.35
	c0.03-46.34,0.1-92.68-0.09-139.02c-0.12-29.1-14.01-49.8-38.58-64.96c-46.02-28.39-91.49-57.65-137.2-86.53
	c-12.64-7.99-26.28-12.44-41.42-11.55c-11.41,0.68-21.93,4.2-31.55,10.22c-38.64,24.17-77.26,48.37-115.81,72.69
	c-12.44,7.85-25.2,15.36-36.81,24.33c-17.55,13.55-26.73,32.08-26.84,54.41c-0.23,46.76-0.18,93.53-0.04,140.29
	c0.08,24.71,10.93,43.98,31.4,57.42c20.1,13.21,40.65,25.73,61.1,38.41c2.99,1.85,4.58,3.76,4.88,7.52
	c1.17,14.51,4.91,28.4,11.54,41.43c0.29,0.57,0.46,1.2,1,2.66c-5.79-3.49-10.86-6.44-15.82-9.56
	c-27.09-17.02-54.27-33.9-81.19-51.19c-28.9-18.57-45.18-45.42-46.69-79.56c-1.51-34.23-0.69-68.57-0.75-102.86
	c-0.03-17-0.25-34.03,0.47-51c1.45-33.88,16.94-60.58,44.6-79.49c25.23-17.25,51.48-33.01,77.32-49.37
	c22.85-14.47,45.68-28.96,68.63-43.26c18.26-11.37,37.97-18.18,59.76-17.9c19.65,0.25,37.68,6.24,54.1,16.6
	c49.56,31.24,99.25,62.3,148.23,94.42c25.47,16.7,39.49,41.57,43.23,71.9c0.81,6.58,0.88,13.28,0.89,19.93
	c0.09,44.36-0.02,88.71,0.11,133.07c0.12,40.02-17.26,70.65-50.33,92.23c-43.86,28.63-88.16,56.58-132.27,84.82
	c-19.79,12.67-41.24,19.6-64.92,19.38c-49.47-0.45-93.02-38.8-99.78-87.64c-3.11-22.49-0.61-44.05,8.86-64.68
	c2.34-5.11,5.45-9.86,7.96-14.34c-6.58-7.99-13.78-15.34-19.37-23.77c-23.5-35.47-30.12-73.81-15.11-114.08
	c15.3-41.05,46.23-65.9,88.12-76.2c55.24-13.58,112.53,16.07,136.55,67.97c30.45,65.81-4.68,152.54-89.69,168.29
	c-14.25,2.64-28.46,2.1-42.66-0.36C279.52,418.86,278.76,418.48,277.55,418.07z"/>
<path class="st2" d="M387.3,502.6c-0.94,2.65-1.9,5.28-2.81,7.92c-5.9,17.09-11.8,34.17-17.67,51.27c-0.64,1.86-1.37,2.97-3.75,3.26
	c-3.84,0.48-5.44-0.92-6.44-4.47c-4.14-14.68-8.49-29.29-12.76-43.93c-0.12-0.4-0.24-0.8-0.66-2.21c-1.94,6.33-3.58,11.77-5.26,17.2
	c-3.19,10.3-6.51,20.56-9.55,30.9c-0.75,2.54-2.34,2.54-4.22,2.46c-2.03-0.09-4.36,0.82-5.35-2.28
	c-6.39-19.92-12.88-39.8-19.34-59.69c-0.06-0.19-0.01-0.42-0.01-1.04c2,0,4.05-0.25,5.98,0.12c0.79,0.15,1.62,1.53,1.93,2.51
	c5.22,16.28,10.35,32.58,15.52,48.87c0.19,0.61,0.44,1.2,0.75,2.03c3.95-13.22,7.8-26.18,11.7-39.13c0.97-3.23,2.16-6.4,3.16-9.62
	c0.57-1.85,1.35-3.1,3.65-2.77c2.29,0.33,4.62-0.23,5.56,3.09c3.39,11.94,7.05,23.8,10.64,35.68c1.25,4.14,2.61,8.26,3.84,12.11
	c5.35-16.05,10.68-32.18,16.12-48.28C380.16,501.12,380.77,500.94,387.3,502.6z"/>
<path class="st2" d="M108.06,516.37c0,16.76,0,33.52,0,50.54c-2.28,0-4.29,0-6.64,0c0-21.26,0-42.57,0-63.93
	c2.98-0.87,4.93-0.14,6.85,2.3c12.3,15.59,24.78,31.04,37.2,46.53c0.19,0.24,0.46,0.41,1.07,0.93c0-16.85,0-33.34,0-50.14
	c2.43,0,4.54,0,7.18,0c0,1.52,0,3.11,0,4.71c-0.04,17.9-0.06,35.8-0.12,53.7c-0.01,2.01,0.47,4.32-2.22,5.2
	c-2.67,0.87-4.04-1-5.39-2.72c-11.96-15.16-23.9-30.33-35.85-45.5c-0.46-0.59-0.94-1.17-1.4-1.76
	C108.51,516.28,108.28,516.32,108.06,516.37z"/>
<path class="st2" d="M253.06,566.99c-2.26,0-4.07,0-6.11,0c0-2.19,0-4.21,0-6.41c-11.64,9.92-24.35,9.97-33.55,0.33
	c-8.3-8.69-8.13-23.4,0.39-32.75c8.46-9.28,20.63-9.08,32.96,0.81c0-9.57,0-18.88,0-28.41c2.23,0,4.13,0,6.31,0
	C253.06,522.65,253.06,544.72,253.06,566.99z M230.19,561.42c8.52-0.06,16.39-8.06,16.47-16.74c0.08-8.67-8.04-17.11-16.5-17.14
	c-8.36-0.04-16.05,8.37-15.98,17.45C214.25,554.01,221.52,561.48,230.19,561.42z"/>
<path class="st2" d="M302.95,548.17c-12.34,0-24.51,0-36.73,0c2.47,13.7,15.17,17.03,28.16,7.59c1.39,1.13,2.81,2.29,4.21,3.43
	c-5.01,8.07-17.23,10.96-26.51,6.56c-13.59-6.43-14.91-19.94-11.07-30.88c3.48-9.93,16.3-15.67,27.21-12.66
	C298.74,525.12,305.01,535.88,302.95,548.17z M265.83,541.82c10.38,0,20.75,0,31.18,0c-1.22-8.82-7.78-14.73-15.66-14.49
	C273.94,527.55,266.24,534.77,265.83,541.82z"/>
<path class="st2" d="M404.23,567.93c-12.65-0.04-22.76-10.24-22.73-22.94c0.03-13.71,9.9-23.61,23.47-23.56
	c12.59,0.05,22.72,10.32,22.71,23.02C427.66,557.53,417.23,567.97,404.23,567.93z M420.44,544.4c0.04-9.19-6.96-16.5-15.8-16.52
	c-8.7-0.01-16.05,7.62-16.15,16.76c-0.1,9.09,6.91,16.61,15.42,16.54C413.02,561.12,420.4,553.63,420.44,544.4z"/>
<path class="st2" d="M159,544.99c-0.13-13.48,9.46-23.47,22.67-23.6c13.14-0.13,23.22,9.82,23.31,23.03
	c0.09,12.86-9.85,23.36-22.27,23.52C169.22,568.1,159.13,558.34,159,544.99z M182.32,527.82c-8.72-0.1-16.37,7.55-16.51,16.52
	c-0.15,9.22,6.86,16.86,15.51,16.9c8.86,0.05,16.58-7.61,16.84-16.7C198.41,535.81,190.94,527.92,182.32,527.82z"/>
<path class="st2" d="M468.85,540.09c6.37-5.78,12.49-11.83,19.22-17.11c2.03-1.59,5.73-1.05,8.66-1.49
	c0.13,0.33,0.26,0.66,0.39,0.99c-4.11,3.8-8.22,7.6-12.33,11.41c-2.24,2.08-4.39,4.26-6.73,6.22c-2.18,1.81-1.86,3.41-0.02,5.11
	c5.85,5.39,11.72,10.78,17.57,16.17c1.35,1.24,3.93,2.14,2.29,4.56c-1.7,2.5-4.22,1.65-6.01,0.12c-7.59-6.5-15.03-13.17-22.61-19.86
	c0,6.46,0,13.51,0,20.75c-2.55,0-4.47,0-6.82,0c0-22.24,0-44.54,0-67.1c2.07,0,4.06,0,6.39,0
	C468.85,513.52,468.85,527.11,468.85,540.09z"/>
<path class="st2" d="M533.99,527.72c-1.58,1.46-3.01,2.77-3.84,3.53c-3.89-1.25-7.17-2.7-10.59-3.24c-1.81-0.29-4.25,0.53-5.72,1.71
	c-1.5,1.21-2.92,3.46-2.93,5.27c-0.01,1.35,2.01,3.25,3.56,3.99c4.4,2.09,9.28,3.27,13.52,5.62c7.85,4.37,8.09,15.11,0.61,20.1
	c-2.11,1.41-4.68,2.35-7.18,2.91c-6.83,1.54-14.94-1.54-19.14-7.12c1.26-1.47,2.57-3.01,4.07-4.76c1.71,1.31,3.26,2.64,4.94,3.76
	c4.46,2.96,10.16,2.68,13.63-0.58c2.91-2.73,2.65-6.43-0.8-8.44c-1.96-1.14-4.14-1.91-6.26-2.76c-2.32-0.93-4.73-1.64-7.01-2.65
	c-8.82-3.92-9.95-13.94-2.3-19.9C515.52,519.74,526.6,520.73,533.99,527.72z"/>
<path class="st2" d="M432.94,522.11c2.12,0,3.94,0,6.16,0c0,2.2,0,4.28,0,6.36c4.35-5.28,9.58-7.37,16.48-6.31
	c-0.46,1.91-0.89,3.71-1.31,5.46c-9.71,0.73-14.73,6.18-14.81,15.98c-0.06,7.73-0.01,15.45-0.01,23.4c-2.32,0-4.23,0-6.52,0
	C432.94,552.16,432.94,537.29,432.94,522.11z"/>
<path class="st0" d="M230.19,561.42c-8.67,0.06-15.95-7.41-16.02-16.43c-0.07-9.09,7.63-17.49,15.98-17.45
	c8.46,0.04,16.58,8.47,16.5,17.14C246.58,553.37,238.71,561.37,230.19,561.42z"/>
<path class="st0" d="M265.83,541.82c0.41-7.05,8.11-14.27,15.52-14.49c7.89-0.24,14.45,5.68,15.66,14.49
	C286.58,541.82,276.21,541.82,265.83,541.82z"/>
<path class="st0" d="M420.44,544.4c-0.04,9.23-7.42,16.72-16.54,16.79c-8.51,0.07-15.52-7.45-15.42-16.54
	c0.1-9.15,7.45-16.78,16.15-16.76C413.48,527.9,420.48,535.22,420.44,544.4z"/>
<path class="st0" d="M182.32,527.82c8.62,0.1,16.09,7.99,15.84,16.73c-0.26,9.08-7.98,16.75-16.84,16.7
	c-8.65-0.05-15.66-7.68-15.51-16.9C165.95,535.38,173.6,527.73,182.32,527.82z"/>
</svg>
